<svg width="247" height="220" viewBox="0 0 247 220" fill="none" xmlns="http://www.w3.org/2000/svg">
<path d="M95.0917 161.259C93.474 159.162 92.7652 156.491 93.1385 153.869C93.501 151.247 94.9023 148.868 97.034 147.303L123.155 128.01L96.2116 103.17C92.3649 99.6219 91.9699 93.6842 95.2918 89.648L127.743 50.3158L118.599 17.1326C90.1737 -6.53178 47.8867 -5.02025 21.1976 21.6726C-7.06587 49.969 -7.06587 95.8729 21.1976 124.18C22.5123 125.475 82.1881 184.945 109.699 212.374L119.433 192.784L95.0917 161.259Z" fill="#BC0000"/>
<path d="M225.529 21.6735C201.572 -2.30505 165.02 -5.96197 137.233 10.6811L148.075 50.0133C148.93 53.1122 148.215 56.4333 146.17 58.9146L116.403 94.9962L145.261 121.619C147.409 123.607 148.573 126.467 148.416 129.398C148.253 132.34 146.793 135.049 144.434 136.794L116.819 157.18L138.774 185.623C141.085 188.619 141.48 192.655 139.797 196.041L127.948 219.895C129.566 219.277 131.081 218.319 132.374 217.018C157.061 192.406 224.149 125.563 225.534 124.192C253.803 95.8793 253.803 49.97 225.529 21.6735Z" fill="#BC0000"/>
</svg>
