<svg width="37" height="31" viewBox="0 0 37 31" fill="none" xmlns="http://www.w3.org/2000/svg">
<path d="M32.1812 27.1583C34.738 25.3475 36.1996 22.727 36.1996 19.9431C36.1996 15.9834 33.2705 12.6004 29.154 11.2355C29.154 11.2355 29.1536 11.2355 29.1536 11.2359C29.1536 11.2355 29.1536 11.2355 29.1536 11.2355C28.0522 5.39065 21.9996 0.91394 14.677 0.91394C6.57218 0.91394 0 6.38984 0 13.1448C0 17.0034 2.16544 20.419 5.49715 22.6849C6.7671 23.55 3.68895 26.4585 3.68895 26.4585C3.68895 26.4585 9.84379 24.7214 10.7627 24.9324C12.0074 25.2182 13.3217 25.3728 14.677 25.3728C15.1548 25.3728 15.6253 25.3501 16.0906 25.3127C16.091 25.3127 16.0913 25.3127 16.0913 25.3127C16.0913 25.3131 16.091 25.3131 16.0906 25.3135C18.0941 27.7193 21.398 29.2996 25.136 29.2996C26.1242 29.2996 27.1062 29.1878 28.013 28.9768C28.6062 28.9768 31.0501 29.5927 32.5974 30.028L35.7405 30.9139L33.3702 28.6668C32.8422 28.1659 32.3226 27.5002 32.1812 27.1583ZM7.2383 15.3132C5.97128 15.3132 4.94241 14.2866 4.94241 13.0181C4.94241 11.7536 5.97164 10.7237 7.2383 10.7237C8.50679 10.7237 9.53345 11.7536 9.53345 13.0181C9.53345 14.2866 8.50679 15.3132 7.2383 15.3132ZM22.1135 10.7237C23.3802 10.7237 24.4094 11.7536 24.4094 13.0181C24.4094 14.2866 23.3802 15.3132 22.1135 15.3132C20.8462 15.3132 19.8184 14.2866 19.8184 13.0181C19.8184 11.7536 20.8462 10.7237 22.1135 10.7237ZM14.6781 15.3132C13.4089 15.3132 12.3815 14.2866 12.3815 13.0181C12.3815 11.7536 13.4093 10.7237 14.6781 10.7237C15.9451 10.7237 16.9725 11.7536 16.9725 13.0181C16.9722 14.2866 15.9448 15.3132 14.6781 15.3132ZM30.5364 26.9165C30.5115 27.2235 30.5965 27.5496 30.7412 27.8706C29.6743 27.6093 28.5414 27.3653 28.0126 27.3653L27.6884 27.3983C26.8603 27.5903 26.0029 27.6881 25.1356 27.6881C22.3059 27.6881 19.7693 26.6585 18.0358 25.0383C18.0355 25.0379 18.0351 25.0379 18.0347 25.0376C18.0351 25.0376 18.0355 25.0376 18.0358 25.0376C24.5171 23.7709 29.35 18.9311 29.35 13.1448C29.35 13.1027 29.3423 13.0609 29.3423 13.0188C29.3423 13.0184 29.3423 13.0184 29.3423 13.0184C29.3427 13.0184 29.3427 13.0184 29.343 13.0188C32.4458 14.2902 34.5877 16.9122 34.5877 19.9431C34.5877 22.2489 33.316 24.4378 31.1003 25.9492C30.7698 26.1738 30.5679 26.5167 30.5364 26.9165Z" fill="#4E50B8"/>
</svg>
