<svg width="30" height="31" viewBox="0 0 30 31" fill="none" xmlns="http://www.w3.org/2000/svg">
<path d="M0.732235 4.56307C-0.244081 3.59012 -0.244078 2.01266 0.732241 1.0397C1.70856 0.0667594 3.29146 0.0667627 4.26777 1.03971L15 11.7349L25.7321 1.03971C26.7084 0.0667627 28.2914 0.0667594 29.2678 1.0397C30.2441 2.01266 30.2441 3.59012 29.2678 4.56307L18.5354 15.2583L29.2678 25.9535C30.2441 26.9264 30.2441 28.504 29.2678 29.4769C28.2914 30.4499 26.7084 30.4499 25.7321 29.4769L15 18.7816L4.26777 29.4769C3.29146 30.4499 1.70856 30.4499 0.732241 29.4769C-0.244078 28.504 -0.244081 26.9264 0.732235 25.9535L11.4644 15.2583L0.732235 4.56307Z" fill="#F3F3F3"/>
</svg>
