<svg width="30" height="31" viewBox="0 0 30 31" fill="none" xmlns="http://www.w3.org/2000/svg">
<path d="M29.4074 20.0171L28.1267 19.0251C27.3502 18.42 26.9231 17.5065 26.9741 16.5602C26.9741 16.3498 26.9741 16.1244 26.9741 15.9139C26.9741 15.7035 26.9741 15.4781 26.9741 15.2677C26.9231 14.3214 27.3502 13.4079 28.1267 12.8027L29.4074 11.8108C30.015 11.3481 30.1775 10.5409 29.7916 9.90197L27.9346 6.89598C27.541 6.26837 26.7248 5.99603 25.9976 6.24969L24.3968 6.79077C23.4521 7.12226 22.3963 7.01645 21.5474 6.5052C21.171 6.26111 20.775 6.04502 20.3627 5.85891C19.462 5.42519 18.8327 4.61704 18.6659 3.67957L18.3937 2.17658C18.2669 1.44153 17.586 0.904484 16.7929 0.914067H13.111C12.318 0.904484 11.637 1.44153 11.5102 2.17658L11.2381 3.67957C11.0852 4.6052 10.4814 5.411 9.60524 5.85891C9.19303 6.04502 8.79695 6.26111 8.42063 6.5052C7.57173 7.01645 6.51588 7.12226 5.57117 6.79077L3.97035 6.24969C3.25246 6.01261 2.45603 6.28281 2.06537 6.89598L0.208421 9.90197C-0.177496 10.5409 -0.0150212 11.3481 0.592618 11.8108L1.87327 12.8027C2.64975 13.4079 3.07689 14.3214 3.02586 15.2677C3.02586 15.4781 3.02586 15.7035 3.02586 15.9139C3.02586 16.1244 3.02586 16.3498 3.02586 16.5602C3.07689 17.5065 2.64975 18.42 1.87327 19.0251L0.592618 20.0171C-0.0150212 20.4798 -0.177496 21.287 0.208421 21.9259L2.06537 24.9319C2.45897 25.5595 3.2752 25.8319 4.00237 25.5782L5.60319 25.0371C6.5479 24.7056 7.60375 24.8114 8.45265 25.3227C8.82897 25.5668 9.22504 25.7829 9.63725 25.969C10.538 26.4027 11.1673 27.2108 11.3341 28.1483L11.6063 29.6513C11.7331 30.3864 12.414 30.9234 13.2071 30.9138H16.889C17.682 30.9234 18.363 30.3864 18.4898 29.6513L18.7619 28.1483C18.9288 27.2108 19.558 26.4027 20.4588 25.969C20.871 25.7829 21.2671 25.5668 21.6434 25.3227C22.4923 24.8114 23.5482 24.7056 24.4929 25.0371L26.0937 25.5782C26.7925 25.7834 27.5506 25.5173 27.9346 24.9319L29.7916 21.9259C30.1775 21.287 30.015 20.4798 29.4074 20.0171ZM15 20.4229C12.3477 20.4229 10.1975 18.4042 10.1975 15.9139C10.1975 13.4237 12.3477 11.405 15 11.405C17.6523 11.405 19.8025 13.4237 19.8025 15.9139C19.8025 17.1098 19.2965 18.2567 18.3959 19.1023C17.4952 19.9479 16.2737 20.4229 15 20.4229Z" fill="#4E50B8"/>
</svg>
