<svg width="44" height="31" viewBox="0 0 44 31" fill="none" xmlns="http://www.w3.org/2000/svg">
<path d="M27.6923 0.321706C27.9751 0.360985 28.2408 0.479831 28.4582 0.66429L43.4648 13.1219C43.6324 13.2622 43.7672 13.4374 43.8596 13.6351C43.9521 13.8328 44 14.0483 44 14.2664C44 14.4846 43.9521 14.7 43.8596 14.8977C43.7672 15.0955 43.6324 15.2706 43.4648 15.411L28.4582 27.8685C28.2397 28.0476 27.9749 28.1615 27.6942 28.1971C27.4136 28.2326 27.1285 28.1885 26.872 28.0697C26.6154 27.9509 26.3978 27.7622 26.2442 27.5255C26.0907 27.2888 26.0074 27.0137 26.004 26.7318V22.216C24.5219 22.1761 22.03 22.1836 18.2976 22.8232C13.3649 23.6683 7.34737 25.6047 2.47814 29.8462C2.23031 30.0581 1.91987 30.1836 1.59393 30.2038C1.26799 30.224 0.94434 30.1377 0.672075 29.9581C0.399809 29.7785 0.193791 29.5152 0.0852772 29.2084C-0.0232365 28.9016 -0.0283237 28.5679 0.0707875 28.2579C4.27063 15.368 16.8616 9.19871 26.004 6.67507V1.81662C26.0024 1.60355 26.0465 1.39259 26.1333 1.19787C26.2202 1.00316 26.3478 0.829208 26.5077 0.687647C26.6676 0.546087 26.856 0.440201 27.0603 0.37709C27.2646 0.313979 27.4801 0.295089 27.6923 0.321706V0.321706ZM29.0053 4.9933V7.79625C29.0055 8.12779 28.895 8.44999 28.6913 8.71214C28.4875 8.9743 28.2021 9.16154 27.8799 9.24445C20.5351 11.0967 10.4885 15.6298 5.24495 24.2715C9.49446 21.8311 13.9809 20.534 17.7973 19.8802C23.0785 18.9754 27.3208 19.245 27.5828 19.2573C27.9671 19.2773 28.329 19.4435 28.5937 19.7217C28.8585 20 29.0058 20.3689 29.0053 20.7522V23.5396L40.1821 14.2743L29.0053 4.9933Z" fill="white"/>
</svg>
