<svg width="26" height="30" viewBox="0 0 26 30" fill="none" xmlns="http://www.w3.org/2000/svg">
<path d="M25 3H17V2C17 1.46957 16.7893 0.960859 16.4142 0.585786C16.0391 0.210714 15.5304 0 15 0H11C10.4696 0 9.96086 0.210714 9.58579 0.585786C9.21071 0.960859 9 1.46957 9 2V3H1C0.734784 3 0.48043 3.10536 0.292893 3.29289C0.105357 3.48043 0 3.73478 0 4C0 4.26522 0.105357 4.51957 0.292893 4.70711C0.48043 4.89464 0.734784 5 1 5H2V29C2 29.2652 2.10536 29.5196 2.29289 29.7071C2.48043 29.8946 2.73478 30 3 30H23C23.2652 30 23.5196 29.8946 23.7071 29.7071C23.8946 29.5196 24 29.2652 24 29V5H25C25.2652 5 25.5196 4.89464 25.7071 4.70711C25.8946 4.51957 26 4.26522 26 4C26 3.73478 25.8946 3.48043 25.7071 3.29289C25.5196 3.10536 25.2652 3 25 3V3ZM9 24C9 24.2652 8.89464 24.5196 8.70711 24.7071C8.51957 24.8946 8.26522 25 8 25C7.73478 25 7.48043 24.8946 7.29289 24.7071C7.10536 24.5196 7 24.2652 7 24V9C7 8.73478 7.10536 8.48043 7.29289 8.29289C7.48043 8.10536 7.73478 8 8 8C8.26522 8 8.51957 8.10536 8.70711 8.29289C8.89464 8.48043 9 8.73478 9 9V24ZM14 24C14 24.2652 13.8946 24.5196 13.7071 24.7071C13.5196 24.8946 13.2652 25 13 25C12.7348 25 12.4804 24.8946 12.2929 24.7071C12.1054 24.5196 12 24.2652 12 24V9C12 8.73478 12.1054 8.48043 12.2929 8.29289C12.4804 8.10536 12.7348 8 13 8C13.2652 8 13.5196 8.10536 13.7071 8.29289C13.8946 8.48043 14 8.73478 14 9V24ZM15 3H11V2H15V3ZM19 24C19 24.2652 18.8946 24.5196 18.7071 24.7071C18.5196 24.8946 18.2652 25 18 25C17.7348 25 17.4804 24.8946 17.2929 24.7071C17.1054 24.5196 17 24.2652 17 24V9C17 8.73478 17.1054 8.48043 17.2929 8.29289C17.4804 8.10536 17.7348 8 18 8C18.2652 8 18.5196 8.10536 18.7071 8.29289C18.8946 8.48043 19 8.73478 19 9V24Z" fill="white"/>
</svg>
