<svg width="33" height="30" viewBox="0 0 33 30" fill="none" xmlns="http://www.w3.org/2000/svg">
<path d="M31.9253 14.5987L31.0365 15.7626L17.1738 3.10226L16.4994 2.4863L15.825 3.10236L1.96806 15.7611L1.0777 14.5982L15.6164 1.32725C15.6165 1.32709 15.6167 1.32693 15.6169 1.32678C16.0974 0.890317 16.9059 0.892423 17.3801 1.325L31.9253 14.5987ZM31.9253 14.5987L27.6157 10.6773L27.2888 10.3798V9.93766V1.07121H24.0522V5.16242V7.43383L22.3769 5.89998L17.3808 1.32567L31.9253 14.5987Z" fill="#4E50B8" stroke="#4E50B8" stroke-width="2"/>
<path d="M27.0257 29.0001H20.1688V21.3886V20.3886H19.1688H13.9283H12.9283V21.3886V29.0001H6.06739C6.02323 29.0001 5.95527 28.9811 5.88449 28.9034C5.8131 28.825 5.75928 28.7052 5.75928 28.5627V18.1264L16.5486 8.38351L27.3378 18.1264V28.5627C27.3378 28.7052 27.2841 28.8246 27.2128 28.9026C27.1424 28.9798 27.0734 29.0001 27.0257 29.0001Z" fill="#4E50B8" stroke="#4E50B8" stroke-width="2"/>
</svg>
