<svg width="48" height="48" viewBox="0 0 48 48" fill="none" xmlns="http://www.w3.org/2000/svg">
<g filter="url(#filter0_d)">
<circle cx="24" cy="20" r="20" fill="#4E50B8"/>
</g>
<path d="M26.8461 11.1609C26.9875 11.1805 27.1204 11.2399 27.2291 11.3322L34.7324 17.561C34.8162 17.6311 34.8836 17.7187 34.9298 17.8176C34.976 17.9164 35 18.0242 35 18.1333C35 18.2423 34.976 18.35 34.9298 18.4489C34.8836 18.5478 34.8162 18.6354 34.7324 18.7055L27.2291 24.9343C27.1199 25.0238 26.9874 25.0808 26.8471 25.0986C26.7068 25.1164 26.5643 25.0943 26.436 25.0349C26.3077 24.9755 26.1989 24.8811 26.1221 24.7628C26.0453 24.6444 26.0037 24.5069 26.002 24.366V22.108C25.261 22.0881 24.015 22.0918 22.1488 22.4117C19.6824 22.8342 16.6737 23.8024 14.2391 25.9231C14.1152 26.0291 13.9599 26.0918 13.797 26.1019C13.634 26.112 13.4722 26.0689 13.336 25.9791C13.1999 25.8893 13.0969 25.7576 13.0426 25.6042C12.9884 25.4508 12.9858 25.284 13.0354 25.129C15.1353 18.684 21.4308 15.5994 26.002 14.3376V11.9083C26.0012 11.8018 26.0232 11.6963 26.0667 11.599C26.1101 11.5016 26.1739 11.4146 26.2539 11.3439C26.3338 11.2731 26.428 11.2201 26.5301 11.1886C26.6323 11.157 26.74 11.1476 26.8461 11.1609ZM27.5027 13.4967V14.8982C27.5027 15.0639 27.4475 15.225 27.3456 15.3561C27.2438 15.4872 27.101 15.5808 26.9399 15.6223C23.2675 16.5484 18.2443 18.815 15.6225 23.1358C17.7472 21.9156 19.9905 21.267 21.8987 20.9401C24.5392 20.4877 26.6604 20.6225 26.7914 20.6287C26.9836 20.6387 27.1645 20.7218 27.2969 20.8609C27.4292 21 27.5029 21.1845 27.5027 21.3761V22.7698L33.0911 18.1372L27.5027 13.4967Z" fill="#D4D4D4"/>
<defs>
<filter id="filter0_d" x="0" y="0" width="48" height="48" filterUnits="userSpaceOnUse" color-interpolation-filters="sRGB">
<feFlood flood-opacity="0" result="BackgroundImageFix"/>
<feColorMatrix in="SourceAlpha" type="matrix" values="0 0 0 0 0 0 0 0 0 0 0 0 0 0 0 0 0 0 127 0"/>
<feOffset dy="4"/>
<feGaussianBlur stdDeviation="2"/>
<feColorMatrix type="matrix" values="0 0 0 0 0 0 0 0 0 0 0 0 0 0 0 0 0 0 0.25 0"/>
<feBlend mode="normal" in2="BackgroundImageFix" result="effect1_dropShadow"/>
<feBlend mode="normal" in="SourceGraphic" in2="effect1_dropShadow" result="shape"/>
</filter>
</defs>
</svg>
