<svg width="40" height="40" viewBox="0 0 40 40" fill="none" xmlns="http://www.w3.org/2000/svg">
<path fill-rule="evenodd" clip-rule="evenodd" d="M20 40C31.0457 40 40 31.0457 40 20C40 8.9543 31.0457 0 20 0C8.9543 0 0 8.9543 0 20C0 31.0457 8.9543 40 20 40ZM23.2291 11.3322C23.1204 11.2399 22.9876 11.1805 22.8461 11.1609C22.74 11.1476 22.6323 11.157 22.5301 11.1886C22.428 11.2201 22.3338 11.2731 22.2539 11.3439C22.1739 11.4146 22.1101 11.5016 22.0667 11.599C22.0232 11.6963 22.0012 11.8018 22.002 11.9083V14.3376C17.4308 15.5994 11.1353 18.684 9.03539 25.129C8.98584 25.284 8.98838 25.4508 9.04264 25.6042C9.0969 25.7576 9.1999 25.8893 9.33604 25.9791C9.47217 26.0689 9.634 26.112 9.79697 26.1019C9.95994 26.0918 10.1152 26.0291 10.2391 25.9231C12.6737 23.8024 15.6824 22.8342 18.1488 22.4117C20.015 22.0918 21.261 22.0881 22.002 22.108V24.366C22.0037 24.5069 22.0453 24.6444 22.1221 24.7628C22.1989 24.8811 22.3077 24.9755 22.436 25.0349C22.5643 25.0943 22.7068 25.1164 22.8471 25.0986C22.9874 25.0808 23.1199 25.0238 23.2291 24.9343L30.7324 18.7055C30.8162 18.6354 30.8836 18.5478 30.9298 18.4489C30.976 18.35 31 18.2423 31 18.1333C31 18.0242 30.976 17.9164 30.9298 17.8176C30.8836 17.7187 30.8162 17.6311 30.7324 17.561L23.2291 11.3322ZM23.5027 14.8982V13.4967L29.0911 18.1372L23.5027 22.7698V21.3761C23.5029 21.1845 23.4292 21 23.2969 20.8609C23.1645 20.7218 22.9836 20.6387 22.7914 20.6287C22.7867 20.6285 22.7795 20.6281 22.7698 20.6276C22.508 20.6136 20.4448 20.5039 17.8987 20.9401C15.9905 21.267 13.7472 21.9156 11.6225 23.1358C14.2443 18.815 19.2675 16.5484 22.9399 15.6223C23.101 15.5808 23.2438 15.4872 23.3456 15.3561C23.4475 15.225 23.5027 15.0639 23.5027 14.8982Z" fill="white"/>
</svg>
